<svg xmlns="http://www.w3.org/2000/svg" width="95" height="28" viewBox="0 0 95 28">
    <defs>
        <clipPath id="kea9ulboja">
            <path fill="#fff" d="M0 0H95V28H0z" transform="translate(-1.011 -1.919)"/>
        </clipPath>
    </defs>
    <g clip-path="url(#kea9ulboja)" transform="translate(1.011 1.919)">
        <path fill="#fff" fill-rule="evenodd" d="M13.414 18.9c2.617-.016 6.316-.332 6.316-3.643 0-1.608-.974-2.579-2.933-3.183a3.509 3.509 0 0 0 2.936-3.145c0-3.2-3.9-3.544-6.316-3.544h-8.13v13.523h3.028V8.151h7.926v2.4h-5.182v3.092h4.681v2.275h-4.681V18.9zM5.4 2.047A12.148 12.148 0 0 1 12.148 0 12.148 12.148 0 1 1 5.4 2.047zm23.809 8.5v-9.3h8.227c1.7 0 4.425.23 4.425 2.441A2.408 2.408 0 0 1 39.8 5.824c1.382.415 2.062 1.178 2.062 2.223 0 2.28-2.591 2.5-4.425 2.5h-5.209l.864-1.428a1.2 1.2 0 0 1 .979-.518h3.318a1.047 1.047 0 0 0 1.126-.979 1.05 1.05 0 0 0-1.126-.983l-5.161-.007.864-1.427a1.2 1.2 0 0 1 .979-.518h3.363c.6 0 1.09-.275 1.09-.741s-.485-.746-1.09-.746h-5.206v7.348zM49.162 3.5l-4.078 7.064h-3.551l5.686-9.31H51.1l5.681 9.3h-3.543L52.285 8.9H47.02l.874-1.427a1.209 1.209 0 0 1 .979-.518h2.28zm24.7 0v.007V3.5zm0 .007l-4.07 7.057h-3.56l5.684-9.31H75.8l5.679 9.3h-3.542L76.982 8.9h-5.263l.864-1.427a1.2 1.2 0 0 1 .976-.518h2.283zM62.289 8.6c.691 0 1.242-.333 1.242-1.01V1.252h3.007v6.622c0 2.007-1.328 2.681-3.067 2.681h-5.027a1.209 1.209 0 0 1-.978-.518L56.592 8.6zm24.687 0c.692 0 1.246-.333 1.246-1.01V1.252h3.016v6.622c0 2.007-1.325 2.681-3.066 2.681h-5.027a1.2 1.2 0 0 1-.977-.518L81.293 8.6zM29.19 13.652h7.448v2.261H31.77v2.218h4.4v2.14h-4.4v2.691h-2.58zm11.793 0h-2.59v9.31h2.591zm2.237 0h2.408l3.831 4.921v-4.921h2.553v9.31h-2.261l-3.973-5.106v5.106H43.22zm11.7 6.211l-1.435 1.715a6.5 6.5 0 0 0 4.363 1.542c2.259 0 3.762-1.131 3.762-3.031v-.026c0-1.743-1.328-2.435-3.47-2.9-1.29-.294-1.61-.478-1.61-.905v-.026c0-.333.306-.6.931-.6a4.662 4.662 0 0 1 2.606.919l1.29-1.822a5.854 5.854 0 0 0-3.829-1.237c-2.235 0-3.6 1.252-3.6 2.979v.029c0 1.916 1.529 2.473 3.511 2.926 1.263.292 1.568.506 1.568.891v.026c0 .4-.373.639-1.064.639a4.793 4.793 0 0 1-3.019-1.119zm8.48-6.211h7.487v2.2H65.95v1.409h4.468v2.035H65.95v1.474h5v2.194H63.4zm13.806 0H72.8v9.31h2.58v-2.819h1.13l1.876 2.819h2.98l-2.221-3.245a2.943 2.943 0 0 0 1.915-2.859v-.028a2.885 2.885 0 0 0-.825-2.168 4.067 4.067 0 0 0-3.035-1.01zm1.254 3.365c0 .679-.5 1.105-1.382 1.105h-1.7v-2.235h1.682c.864 0 1.4.371 1.4 1.1zm3.427-3.365h2.886l2.114 5.891 2.109-5.891h2.833l-3.777 9.377H85.66z" transform="translate(.539 -.044)"/>
    </g>
</svg>
