<svg xmlns="http://www.w3.org/2000/svg" width="68" height="68.003" viewBox="0 0 68 68.003">
    <g>
        <g>
            <path fill="#c8c5c3" d="M21.21 51.049l-10.145 5.534a9.117 9.117 0 0 0-1.628 1.159 33.98 33.98 0 0 0 43.659.113 9 9 0 0 0-1.789-1.2l-10.863-5.43a4.143 4.143 0 0 1-2.29-3.706v-4.262a16.41 16.41 0 0 0 1.028-1.322 25 25 0 0 0 3.377-6.805 3.412 3.412 0 0 0 2.42-3.246v-4.55a3.4 3.4 0 0 0-1.137-2.521v-6.577S45.192 8 31.331 8s-12.51 10.235-12.51 10.235v6.577a3.392 3.392 0 0 0-1.137 2.521v4.55a3.411 3.411 0 0 0 1.573 2.863 22.578 22.578 0 0 0 4.114 8.511v4.157a4.147 4.147 0 0 1-2.161 3.635z" transform="translate(-736 -263) translate(736 263) translate(2.671 2.265)"/>
            <g>
                <path fill="#fff" d="M34.583.005A33.98 33.98 0 0 0 12.122 60a9.035 9.035 0 0 1 1.613-1.147l10.145-5.538a4.144 4.144 0 0 0 2.159-3.637v-4.157a22.556 22.556 0 0 1-4.114-8.511 3.412 3.412 0 0 1-1.573-2.863V29.6a3.4 3.4 0 0 1 1.137-2.521V20.5S20.139 10.265 34 10.265 46.51 20.5 46.51 20.5v6.577a3.392 3.392 0 0 1 1.137 2.523v4.55a3.412 3.412 0 0 1-2.42 3.246A25 25 0 0 1 41.85 44.2a16.408 16.408 0 0 1-1.028 1.322v4.262a4.141 4.141 0 0 0 2.29 3.706l10.864 5.43a9.047 9.047 0 0 1 1.783 1.2A33.993 33.993 0 0 0 34.583.005z" transform="translate(-736 -263) translate(736 263)"/>
            </g>
        </g>
    </g>
</svg>
