<svg xmlns="http://www.w3.org/2000/svg" width="32" height="32" viewBox="0 0 32 32">
    <g>
        <path fill="#0074c9" d="M20.854 24H5.813A5.816 5.816 0 0 1 0 18.193v-7.911a5.816 5.816 0 0 1 5.813-5.807.264.264 0 0 0 .254-.16l.079-.16.111-.233c.348-.734.742-1.564.982-2.044A3.244 3.244 0 0 1 10.187 0h6.28a3.254 3.254 0 0 1 2.96 1.878c.21.419.528 1.093.837 1.744l.189.4.134.293a.3.3 0 0 0 .266.16 5.816 5.816 0 0 1 5.813 5.807v7.912A5.816 5.816 0 0 1 20.854 24zM13.333 8.537a5.229 5.229 0 0 0-3.72 1.546 5.156 5.156 0 0 0-1.52 3.689 5.232 5.232 0 0 0 5.24 5.234 5.194 5.194 0 0 0 3.694-1.531 5.221 5.221 0 0 0 .013-7.405 5.206 5.206 0 0 0-3.707-1.533zm7.48-.319a1.205 1.205 0 1 0 1.214 1.212 1.207 1.207 0 0 0-1.214-1.212zm-7.48 8.79a3.231 3.231 0 0 1-3.24-3.236v-.013a3.116 3.116 0 0 1 .934-2.264 3.24 3.24 0 1 1 2.306 5.514z" transform="translate(2.667 4)"/>
    </g>
</svg>
