<svg xmlns="http://www.w3.org/2000/svg" width="122.353" height="32.298" viewBox="0 0 122.353 32.298">
    <g data-name="Zero DP">
        <g data-name="Group 20243">
            <path data-name="Path 31062" d="M28.008 47.37H4.284A4.306 4.306 0 0 1 0 43.049V13.3a4.438 4.438 0 0 1 1.722-3.488c7.378-5.435 8.894-6.509 10-7.295.536-.379 1-.706 1.968-1.417a2.213 2.213 0 0 1 .349-.215 8.78 8.78 0 0 0 1.116-.749A4.09 4.09 0 0 1 16.2 0a4.224 4.224 0 0 1 2.528.844L30.624 9.81a4.009 4.009 0 0 1 1.671 3.421v29.818a4.306 4.306 0 0 1-4.287 4.321zM16.382 24.03a19.45 19.45 0 0 0-5.344.646 11 11 0 0 0-3.746 1.817 7.4 7.4 0 0 0-2.213 2.754 8.269 8.269 0 0 0-.732 3.482 8.4 8.4 0 0 0 .728 3.48 7.409 7.409 0 0 0 2.211 2.765 10.98 10.98 0 0 0 3.746 1.826 19.2 19.2 0 0 0 5.344.663 19.211 19.211 0 0 0 5.346-.663 10.98 10.98 0 0 0 3.746-1.832 7.353 7.353 0 0 0 2.2-2.778 8.476 8.476 0 0 0 .717-3.48 8.355 8.355 0 0 0-.717-3.462 7.342 7.342 0 0 0-2.2-2.754 11 11 0 0 0-3.746-1.817 19.459 19.459 0 0 0-5.346-.65zm2.807-5.676v3.609h1.356v-9.044h-1.4v1.9a4.018 4.018 0 0 1-.53 2.218 2.211 2.211 0 0 1-1.5.988v-5.106h-1.342V18a2.5 2.5 0 0 1-1.464-1.059 3.876 3.876 0 0 1-.551-2.185v-1.837h-1.292v1.628a1.292 1.292 0 0 1-.1.588 1.055 1.055 0 0 1-.334.353L7.062 19.1a.818.818 0 0 0-.4.745v1.686l5.512-4.059a2.082 2.082 0 0 0 .646-.717 4.477 4.477 0 0 0 1.113 2.069 3.391 3.391 0 0 0 1.832.973v2.153h1.348v-2.141a3 3 0 0 0 1.184-.431 2.7 2.7 0 0 0 .892-1.024zM16.375 36.3a21.33 21.33 0 0 1-4-.306 8.381 8.381 0 0 1-2.448-.816A2.96 2.96 0 0 1 8.7 34.029a2.849 2.849 0 0 1-.332-1.309 2.81 2.81 0 0 1 .332-1.292A2.907 2.907 0 0 1 9.925 30.3a8.611 8.611 0 0 1 2.446-.8 21.919 21.919 0 0 1 4-.3 21.958 21.958 0 0 1 4 .3 8.467 8.467 0 0 1 2.446.79 2.911 2.911 0 0 1 1.221 1.13 2.832 2.832 0 0 1 .329 1.292 2.87 2.87 0 0 1-.329 1.309 2.965 2.965 0 0 1-1.221 1.154 8.239 8.239 0 0 1-2.446.816 21.375 21.375 0 0 1-4 .314z" transform="rotate(-90 16.149 16.149)" style="fill:#034263"/>
        </g>
        <path data-name="Path 31075" d="M10.24.452a5.893 5.893 0 0 1-.4 2.2A4.941 4.941 0 0 1 6.977 5.5a6.139 6.139 0 0 1-2.261.4H.563V-5h4.153a6.088 6.088 0 0 1 2.261.4 5.1 5.1 0 0 1 1.741 1.13A5.015 5.015 0 0 1 9.84-1.748a5.893 5.893 0 0 1 .4 2.2zm-2.08 0a5.074 5.074 0 0 0-.237-1.609 3.334 3.334 0 0 0-.686-1.206 2.992 2.992 0 0 0-1.085-.757 3.721 3.721 0 0 0-1.436-.264H2.6v7.672h2.116a3.721 3.721 0 0 0 1.436-.264 2.992 2.992 0 0 0 1.085-.757 3.334 3.334 0 0 0 .686-1.206A5.074 5.074 0 0 0 8.16.452zm14.56 0a6.091 6.091 0 0 1-.4 2.219 5.21 5.21 0 0 1-1.12 1.768A5.085 5.085 0 0 1 19.464 5.6a5.893 5.893 0 0 1-2.261.418A5.873 5.873 0 0 1 14.95 5.6a5.125 5.125 0 0 1-1.745-1.164 5.228 5.228 0 0 1-1.127-1.767 6.04 6.04 0 0 1-.4-2.219 6.04 6.04 0 0 1 .4-2.219 5.228 5.228 0 0 1 1.127-1.767A5.125 5.125 0 0 1 14.95-4.7a5.873 5.873 0 0 1 2.25-.417 6.116 6.116 0 0 1 1.56.192 5.477 5.477 0 0 1 1.341.543 4.959 4.959 0 0 1 1.1.852 5.176 5.176 0 0 1 .825 1.119 5.485 5.485 0 0 1 .516 1.341A6.382 6.382 0 0 1 22.72.452zm-2.072 0a5 5 0 0 0-.241-1.609 3.449 3.449 0 0 0-.686-1.21 2.936 2.936 0 0 0-1.081-.761 4.039 4.039 0 0 0-2.871 0 2.971 2.971 0 0 0-1.085.761 3.417 3.417 0 0 0-.69 1.21 5 5 0 0 0-.242 1.609 5 5 0 0 0 .241 1.609 3.378 3.378 0 0 0 .69 1.206 2.992 2.992 0 0 0 1.085.757 4.039 4.039 0 0 0 2.871 0 2.957 2.957 0 0 0 1.081-.757 3.409 3.409 0 0 0 .686-1.206 5 5 0 0 0 .241-1.609zM39.081-5 35.7 5.9h-1.834l-2.382-7.445a5.078 5.078 0 0 1-.181-.663q-.045.188-.09.354t-.1.309L28.711 5.9h-1.839L23.5-5h1.7a.748.748 0 0 1 .441.124.6.6 0 0 1 .237.335l1.854 6.519q.06.241.117.524t.117.592q.06-.317.132-.6t.154-.52l2.14-6.519a.713.713 0 0 1 .237-.317.667.667 0 0 1 .426-.138h.6a.683.683 0 0 1 .43.128.784.784 0 0 1 .249.332l2.133 6.519a9.407 9.407 0 0 1 .286 1.078q.1-.6.219-1.078l1.848-6.516a.564.564 0 0 1 .23-.324.724.724 0 0 1 .441-.139zM49.91-5V5.9h-1.04a.915.915 0 0 1-.4-.079.943.943 0 0 1-.313-.268l-5.69-7.265q.045.5.045.919V5.9h-1.788V-5h1.063a1.9 1.9 0 0 1 .222.011.534.534 0 0 1 .166.045.544.544 0 0 1 .139.1 1.571 1.571 0 0 1 .151.17l5.712 7.295q-.023-.264-.038-.52t-.015-.475V-5zM4.11 17.7a3.054 3.054 0 0 0 .972-.139 1.842 1.842 0 0 0 .69-.4 1.617 1.617 0 0 0 .411-.633 2.423 2.423 0 0 0 .136-.833 2.2 2.2 0 0 0-.136-.791 1.564 1.564 0 0 0-.407-.6 1.81 1.81 0 0 0-.686-.381 3.244 3.244 0 0 0-.98-.132H2.591v3.911zm0-5.479a6.219 6.219 0 0 1 1.89.264 3.641 3.641 0 0 1 1.319.716 2.839 2.839 0 0 1 .772 1.1 3.79 3.79 0 0 1 .252 1.4 3.872 3.872 0 0 1-.264 1.451 3.01 3.01 0 0 1-.791 1.134 3.679 3.679 0 0 1-1.323.739 5.908 5.908 0 0 1-1.858.264H2.591v3.836H.563v-10.9zm11.086 6.783-1.326-3.625q-.1-.241-.2-.573t-.22-.706q-.1.384-.2.72t-.2.584l-1.319 3.61zm3.58 4.115H17.2a.669.669 0 0 1-.43-.132.821.821 0 0 1-.249-.328l-.814-2.223H11.2l-.814 2.223a.722.722 0 0 1-.234.317.652.652 0 0 1-.43.143H8.137l4.288-10.9h2.065zm4.981-4.22v4.22h-2.02v-4.22l-3.972-6.677h1.786a.635.635 0 0 1 .418.128 1.079 1.079 0 0 1 .26.324l1.99 3.64q.173.324.305.61t.237.573q.1-.286.226-.573t.294-.61l1.982-3.64a1.007 1.007 0 0 1 .249-.309.623.623 0 0 1 .422-.143h1.794zm17.205-6.677v10.9h-1.791v-7.034q0-.422.045-.912l-3.293 6.187a.761.761 0 0 1-.716.445h-.286a.761.761 0 0 1-.716-.445l-3.331-6.21q.023.249.038.49t.015.445v7.039h-1.786v-10.9h1.53q.136 0 .234.008a.632.632 0 0 1 .177.038.385.385 0 0 1 .143.1.837.837 0 0 1 .124.181l3.263 6.046q.128.241.237.5t.215.528q.106-.279.219-.539t.241-.5l3.218-6.036a.761.761 0 0 1 .128-.181.419.419 0 0 1 .147-.1.632.632 0 0 1 .177-.038q.1-.008.234-.008zm4.763 1.613v3.022h3.813v1.56H45.72v3.082h4.838v1.62h-6.873v-10.9h6.873v1.613zm16.12-1.613v10.9H60.8a.915.915 0 0 1-.4-.079.943.943 0 0 1-.313-.268l-5.69-7.265q.045.5.045.919v6.692h-1.789v-10.9h1.063a1.9 1.9 0 0 1 .222.011.534.534 0 0 1 .166.045.543.543 0 0 1 .139.1 1.57 1.57 0 0 1 .151.17l5.712 7.295q-.023-.264-.038-.52t-.015-.475v-6.618zm10.34 1.665h-3.291v9.232h-2.027v-9.224h-3.286v-1.666h8.6z" transform="translate(50.173 7.015)" style="fill:#1a1004"/>
    </g>
</svg>
