<svg width="20" height="21" viewBox="0 0 20 21" fill="none" xmlns="http://www.w3.org/2000/svg">
<path d="M6.53033 7.96967C6.23744 7.67678 5.76256 7.67678 5.46967 7.96967C5.17678 8.26256 5.17678 8.73744 5.46967 9.03033L6.53033 7.96967ZM10 12.5L9.46967 13.0303C9.76256 13.3232 10.2374 13.3232 10.5303 13.0303L10 12.5ZM14.5303 9.03033C14.8232 8.73744 14.8232 8.26256 14.5303 7.96967C14.2374 7.67678 13.7626 7.67678 13.4697 7.96967L14.5303 9.03033ZM5.46967 9.03033L9.46967 13.0303L10.5303 11.9697L6.53033 7.96967L5.46967 9.03033ZM10.5303 13.0303L14.5303 9.03033L13.4697 7.96967L9.46967 11.9697L10.5303 13.0303Z" fill="white"/>
</svg>
