<svg xmlns="http://www.w3.org/2000/svg" width="64" height="64" fill="none"><path fill="#D0D2E0" d="M32 17.333C21.742 17.333 12.96 23.4 9.333 32 12.96 40.6 21.742 46.666 32 46.666c10.258 0 19.04-6.066 22.667-14.666C51.04 23.4 42.258 17.333 32 17.333Z"/><path fill="#D0D2E0" fill-rule="evenodd" d="M10.788 32C14.334 39.826 22.48 45.333 32 45.333S49.666 39.826 53.212 32C49.666 24.174 41.52 18.667 32 18.667S14.334 24.174 10.788 32Zm-2.683-.518C11.942 22.382 21.212 16 32 16s20.058 6.382 23.895 15.482l.219.518-.219.518C52.058 41.618 42.788 48 32 48S11.942 41.618 8.105 32.518L7.886 32l.219-.518Z" clip-rule="evenodd"/><path fill="#2B3151" fill-rule="evenodd" d="M32 25.334a6.667 6.667 0 1 0 0 13.333 6.667 6.667 0 0 0 0-13.333ZM22.666 32a9.333 9.333 0 1 1 18.667 0 9.333 9.333 0 0 1-18.666 0Z" clip-rule="evenodd"/><path fill="#959AB4" fill-rule="evenodd" d="M55.61 8.39c.52.521.52 1.365 0 1.886L10.275 55.61a1.333 1.333 0 1 1-1.885-1.886L53.724 8.39c.52-.521 1.365-.521 1.886 0Z" clip-rule="evenodd"/></svg>