<?xml version="1.0" encoding="UTF-8"?>
<svg width="38px" height="48px" viewBox="0 0 38 48" version="1.1" xmlns="http://www.w3.org/2000/svg" xmlns:xlink="http://www.w3.org/1999/xlink">
    <title>D99B1D1B-B713-4653-8819-0DEE0451A302</title>
    <g id="1280-FoneSafe" stroke="none" stroke-width="1" fill="none" fill-rule="evenodd">
        <g id="1280-EW-FoneSafe" transform="translate(-394.000000, -913.000000)" fill="#50B9E0" fill-rule="nonzero">
            <g id="Group-30" transform="translate(246.000000, 813.000000)">
                <g id="Group-29" transform="translate(0.000000, 100.325956)">
                    <g id="Group-25" transform="translate(134.076640, 0.000000)">
                        <g id="Group-19801" transform="translate(14.008007, 0.000000)">
                            <path d="M32.4025374,16.2826143 L29.6227028,16.2826143 L29.6227028,10.9779716 C29.6641532,4.95595225 24.7220428,0.0411729502 18.5841903,0.000250808597 C12.4463377,-0.0401634148 7.43702288,4.80867973 7.39557245,10.8306991 L7.39557245,16.2826143 L4.61862448,16.2826143 C2.07373181,16.296542 0.0141955795,18.3172108 0,20.8140764 L0,42.6217375 C0.0141955795,45.1186031 2.07373181,47.1392718 4.61862448,47.1531995 L32.4025374,47.1531995 C34.9474301,47.1392718 37.0069663,45.1186031 37.0211619,42.6217375 L37.0211619,20.8140764 C37.0069663,18.3172108 34.9474301,16.296542 32.4025374,16.2826143 Z M20.1314295,30.457594 L20.1314295,38.2715339 C20.1383278,39.1297148 19.4652308,39.8458648 18.5928502,39.9085246 C18.1492673,39.9302347 17.7160088,39.7725664 17.3941478,39.4723012 C17.0722868,39.1720361 16.8899711,38.7554334 16.8897324,38.3196807 L16.8897324,30.457594 C15.3386916,29.716896 14.5142421,28.0236582 14.9016078,26.3744237 C15.2889735,24.7251892 16.7855679,23.5567269 18.5105809,23.5567269 C20.235594,23.5567269 21.7321884,24.7251892 22.1195541,26.3744237 C22.5069198,28.0236582 21.6824703,29.716896 20.1314295,30.457594 L20.1314295,30.457594 Z M26.3838924,16.2826143 L10.6401561,16.2826143 L10.6401561,10.8306991 C10.6401561,6.56523238 14.1645115,3.10738843 18.5120242,3.10738843 C22.859537,3.10738843 26.3838924,6.56523238 26.3838924,10.8306991 L26.3838924,16.2826143 Z" id="Icon_ionic-ios-lock"></path>
                        </g>
                    </g>
                </g>
            </g>
        </g>
    </g>
</svg>