<?xml version="1.0" encoding="UTF-8"?>
<svg width="45px" height="48px" viewBox="0 0 45 48" version="1.1" xmlns="http://www.w3.org/2000/svg" xmlns:xlink="http://www.w3.org/1999/xlink">
    <title>620C7008-2FD7-4E85-954D-7DFAD24082F4</title>
    <g id="1280-FoneSafe" stroke="none" stroke-width="1" fill="none" fill-rule="evenodd">
        <g id="1280-EW-FoneSafe" transform="translate(-971.000000, -913.000000)" fill="#50B9E0" fill-rule="nonzero">
            <g id="Group-30" transform="translate(246.000000, 813.000000)">
                <g id="Group-29" transform="translate(0.000000, 100.325956)">
                    <g id="Group-23" transform="translate(710.406079, 0.000000)">
                        <g id="Group-19803" transform="translate(14.912983, 0.000000)">
                            <path d="M41.7930284,7.75225329 L23.9773336,0.340668079 C22.8814947,-0.113556026 21.6497436,-0.113556026 20.5539047,0.340668079 L2.74620856,7.75225329 C1.0840795,8.43954129 0,10.0593294 0,11.8561889 C0,30.247999 10.6195618,42.9592804 20.545906,47.0925109 C21.6417449,47.546735 22.873496,47.546735 23.9693349,47.0925109 C31.9200086,43.7848613 44.5259061,32.359888 44.5259061,11.8561889 C44.5265358,10.0629953 43.4489759,8.44483398 41.7930284,7.75225329 Z M22.2709516,41.3480663 L22.2709516,6.04782838 L38.5882296,12.8388964 C38.2816141,26.8657808 30.9734999,37.0310775 22.2816165,41.3347504 L22.2709516,41.3480663 Z" id="Icon_awesome-shield-alt"></path>
                        </g>
                    </g>
                </g>
            </g>
        </g>
    </g>
</svg>