<?xml version="1.0" encoding="UTF-8"?>
<svg width="37px" height="48px" viewBox="0 0 37 48" version="1.1" xmlns="http://www.w3.org/2000/svg" xmlns:xlink="http://www.w3.org/1999/xlink">
    <title>FDD89ABF-BD88-4F94-8C62-3477A5E26511</title>
    <g id="1280-FoneSafe" stroke="none" stroke-width="1" fill="none" fill-rule="evenodd">
        <g id="1280-EW-FoneSafe" transform="translate(-542.000000, -913.000000)" fill="#50B9E0" fill-rule="nonzero">
            <g id="Group-30" transform="translate(246.000000, 813.000000)">
                <g id="Group-29" transform="translate(0.000000, 100.325956)">
                    <g id="Group-21" transform="translate(264.150993, 0.000000)">
                        <g id="Group-19805" transform="translate(32.018302, 0.000000)">
                            <path d="M28.8134782,11.1516791 C25.9643544,7.00954398 22.5178897,3.31816363 18.5877038,0.199231978 C18.2424103,-0.0664106593 17.763226,-0.0664106593 17.4179326,0.199231978 C13.4957729,3.30757602 10.0606649,6.99264711 7.2280591,11.1305935 C2.9017271,16.6858548 0.378165868,23.4470502 5.11319704e-06,30.4961828 C5.11319704e-06,30.6317329 5.11319704e-06,30.7793318 5.11319704e-06,30.9148819 C-0.00167717077,32.9469008 0.411771866,34.9575517 1.21465754,36.8218535 C1.67638006,37.8752283 2.25015737,38.8751032 2.925934,39.8039555 C6.50657718,44.5201575 12.0971701,47.2462908 17.9923471,47.1507702 C27.945873,47.1507702 36.0205848,39.8822733 36.0205848,30.9148819 C35.7203208,23.7323452 33.2007806,16.8233058 28.8134782,11.1516791 Z M19.1292091,41.1172852 L19.0753577,41.1172852 C18.5902937,41.1150681 18.1786855,40.758393 18.1042562,40.2757867 C18.0298269,39.7931804 18.314628,39.3276269 18.7761835,39.1774128 C23.344838,37.9692745 27.0020765,34.5259154 28.5053287,30.0172391 C28.6750174,29.5753027 29.1331696,29.3176264 29.5958972,29.403876 C30.0586248,29.4901257 30.3947973,29.8958593 30.3961097,30.3696694 L30.3961097,30.5293172 C30.1736226,36.5787297 25.1385455,41.3103979 19.1292091,41.1172852 L19.1292091,41.1172852 Z" id="Icon_ionic-ios-water"></path>
                        </g>
                    </g>
                </g>
            </g>
        </g>
    </g>
</svg>