<?xml version="1.0" encoding="UTF-8"?>
<svg width="30px" height="52px" viewBox="0 0 30 52" version="1.1" xmlns="http://www.w3.org/2000/svg" xmlns:xlink="http://www.w3.org/1999/xlink">
    <title>FCF7DDFA-87D7-4975-8E7D-3552CA596C83</title>
    <g id="1280-FoneSafe" stroke="none" stroke-width="1" fill="none" fill-rule="evenodd">
        <g id="1280-EW-FoneSafe" transform="translate(-267.000000, -913.000000)">
            <g id="Group-30" transform="translate(246.000000, 813.000000)">
                <g id="Group-29" transform="translate(0.000000, 100.325956)">
                    <g id="Group-32" transform="translate(21.012011, 0.000000)">
                        <path d="M26.3712243,0 L2.64536204,0 C1.05312369,0.164480402 -0.117588015,1.58501981 0.00942935347,3.19843583 L0.00942935347,47.9678019 C-0.117588015,49.581218 1.05312369,51.0017574 2.64536204,51.1662378 L26.3712243,51.1662378 C27.9634626,51.0017574 29.1341743,49.581218 29.007157,47.9678019 L29.007157,3.19843583 C29.1341743,1.58501981 27.9634626,0.164480402 26.3712243,0 Z M14.5082932,48.8563257 C13.3204866,48.6368379 12.4575226,47.5902591 12.4575226,46.369208 C12.4575226,45.1481569 13.3204866,44.1015781 14.5082932,43.8820903 C15.6960997,44.1015781 16.5590637,45.1481569 16.5590637,46.369208 C16.5590637,47.5902591 15.6960997,48.6368379 14.5082932,48.8563257 L14.5082932,48.8563257 Z M26.3712243,41.5721782 L2.64536204,41.5721782 L2.64536204,6.39562373 L26.3712243,6.39562373 L26.3712243,41.5721782 Z" id="Icon_metro-mobile" fill="#50B9E0" fill-rule="nonzero"></path>
                        <g id="Group-31" transform="translate(6.765858, 14.026695)" stroke="#6A6A6A" stroke-linecap="round" stroke-width="0.5">
                            <line x1="12.6687664" y1="15.6589827" x2="8.44584423" y2="9.96469375" id="Line_661"></line>
                            <line x1="12.6700004" y1="14.2350985" x2="12.6700004" y2="9.96469375" id="Line_662"></line>
                            <polyline id="Path_250" points="6.69719413 2.89394174 3.15423405 3.93845629 6.69719413 12.8124622"></polyline>
                            <line x1="8.44584423" y1="0" x2="10.5573053" y2="4.31782597" id="Line_666"></line>
                            <line x1="9.85389629" y1="7.11817322" x2="7.03779218" y2="9.96594168" id="Line_667"></line>
                            <line x1="5.63097417" y1="18.5067512" x2="0" y2="14.2363464" id="Line_668"></line>
                            <line x1="2.81487006" y1="8.98631931" x2="1.40681801" y2="13.2567241" id="Line_669"></line>
                        </g>
                    </g>
                </g>
            </g>
        </g>
    </g>
</svg>