<?xml version="1.0" encoding="UTF-8"?>
<svg width="28px" height="46px" viewBox="0 0 28 46" version="1.1" xmlns="http://www.w3.org/2000/svg" xmlns:xlink="http://www.w3.org/1999/xlink">
    <title>FDB238EA-38FC-4F8F-A03B-C4D59AD5F1EA</title>
    <g id="1280-FoneSafe" stroke="none" stroke-width="1" fill="none" fill-rule="evenodd">
        <g id="1280-EW-FoneSafe" transform="translate(-852.000000, -914.000000)" fill="#50B9E0" fill-rule="nonzero">
            <g id="Group-30" transform="translate(246.000000, 813.000000)">
                <g id="Group-29" transform="translate(0.000000, 100.325956)">
                    <g id="Group-10" transform="translate(593.321975, 0.017232)">
                        <g id="Icon-material-phone-in-talk" transform="translate(-0.000000, 0.000000)">
                            <path d="M38.6549488,30.3023054 C36.3770012,30.3056381 34.1132185,29.9425623 31.949579,29.2268677 C31.2767245,29.0120539 30.5407744,29.1861269 30.0340588,29.6799424 L25.9022978,33.8299658 C20.5698517,31.1061434 16.2356353,26.7527698 13.5237992,21.3967542 L17.6555602,17.2277648 C18.1634489,16.7437145 18.346408,16.0080955 18.1248242,15.3410074 C17.4122791,13.1678047 17.050801,10.894016 17.054119,8.60599985 C17.050284,7.56634813 16.2121398,6.72449933 15.1770631,6.7206473 L8.6031712,6.7206473 C7.56727777,6.72411872 6.7284863,7.56693143 6.72541578,8.60740473 C6.72467387,17.1133015 10.0884303,25.2710329 16.0765401,31.2856102 C22.0646499,37.3001875 30.1864827,40.6788117 38.6549488,40.6780666 C39.6911153,40.6749804 40.530331,39.8320554 40.5334034,38.791309 L40.5334034,32.1883604 C40.5299473,31.1478883 39.6908434,30.3053894 38.6549488,30.3023054 L38.6549488,30.3023054 Z M36.7764941,23.6993569 L40.5327041,23.6993569 C40.5319318,14.3228701 32.9646346,6.72181094 23.6294097,6.7206473 L23.6294097,10.4934597 C27.1170941,10.4910346 30.4626155,11.8816098 32.9287158,14.3587421 C35.3948161,16.8358743 36.7790941,20.196257 36.7764941,23.6993569 L36.7764941,23.6993569 Z M29.2633749,23.6993569 L33.0209835,23.6993569 C33.0190535,18.4905249 28.81532,14.2685253 23.6294097,14.2669746 L23.6294097,18.039787 C25.1244417,18.0377327 26.5588294,18.6333473 27.6159776,19.6951682 C28.6731259,20.7569891 29.2661196,22.1977168 29.2640742,23.6993569 L29.2633749,23.6993569 Z" id="Icon_material-phone-in-talk" transform="translate(23.629410, 23.699357) rotate(36.010525) translate(-23.629410, -23.699357) "></path>
                        </g>
                    </g>
                </g>
            </g>
        </g>
    </g>
</svg>