<?xml version="1.0" encoding="UTF-8"?>
<svg width="33px" height="48px" viewBox="0 0 33 48" version="1.1" xmlns="http://www.w3.org/2000/svg" xmlns:xlink="http://www.w3.org/1999/xlink">
    <title>F835C1D8-CF24-4A15-8E5D-E1727D7DAEDD</title>
    <g id="1280-FoneSafe" stroke="none" stroke-width="1" fill="none" fill-rule="evenodd">
        <g id="1280-EW-FoneSafe" transform="translate(-710.000000, -913.000000)" fill="#50B9E0" fill-rule="nonzero">
            <g id="Group-30" transform="translate(246.000000, 813.000000)">
                <g id="Group-29" transform="translate(0.000000, 100.325956)">
                    <g id="Group-22" transform="translate(428.244791, 0.000000)">
                        <g id="Group-19804" transform="translate(36.020590, 0.000000)">
                            <path d="M16.0091511,0 C7.17158755,0.0100629972 0.00976142032,7.39315216 0,16.5037503 C0,28.8809108 16.0091511,47.1531995 16.0091511,47.1531995 C16.0091511,47.1531995 32.0183021,28.8939531 32.0183021,16.5037503 C32.0085407,7.39315216 24.8467146,0.0100629972 16.0091511,0 Z M25.156153,18.8618015 L18.2965341,18.8618015 L18.2965341,25.9333468 L13.721768,25.9333468 L13.721768,18.8618015 L6.85961887,18.8618015 L6.85961887,14.145699 L13.7192377,14.145699 L13.7192377,7.07154527 L18.2940038,7.07154527 L18.2940038,14.145699 L25.1536227,14.145699 L25.156153,18.8618015 Z" id="Icon_material-add-location"></path>
                        </g>
                    </g>
                </g>
            </g>
        </g>
    </g>
</svg>